/* XPM */
static char *_fa61046ebed42949ef0f2c409c39d40naE67fZ1LD8C24ei[] = {
/* columns rows colors chars-per-pixel */
"32 32 22 1 ",
"  c #0F0907",
". c #110B08",
"X c #110E0D",
"o c #150F0D",
"O c #160F0D",
"+ c #18110E",
"@ c #18120F",
"# c #1A1311",
"$ c #1B1412",
"% c #1C1513",
"& c #1D1614",
"* c #1F1815",
"= c #1D1918",
"- c #221916",
"; c #2C201D",
": c #2E251F",
"> c #2B2623",
", c #2F2620",
"< c #302721",
"1 c #40342E",
"2 c #4F413B",
"3 c #6F5F57",
/* pixels */
"=====X==*XXXXX$+XX====>>>=XXX$#X",
"2221<<.*.*<<<<<<<X...,<<*..<<222",
"2111<<..*<<<<111<<<<..--*.*<<122",
"111<<<*.<<11221<<<<*.....*<<11<,",
"11<<<<<.<112221<<<*..<$XX-<11111",
"11<<<<*.<122221<<**.22111-<<11<<",
"<<<<<*<.<11221<<<*.*<1<<<-<11<<<",
"<<<<*<*.<1<111<<<*.*<<<<<-<<<<<-",
"**<*<*..<<<<11<<,** *-<,<==<<<<*",
"*.......*<*<<<<:oooO .<,<.---*.*",
".111<<**.**<<<<+o---$ X....$o@.*",
"*1<<<*......<<+O--,-@*-;32<1<<<.",
"<<<<*..2211.&+O--;;-@*3211<<<<1-",
"<<<**.11111<+O-;;;;-#-2,1<<<<<<*",
"<*<..<<<11<<#--;;;;-@,111<<<<<<*",
"<<**<<<<<<<<+-;;;;;-$=-;<<<<<<<*",
"<*<*<<<<<<<<$-;;----#,<<<<<<<<**",
"<<**<<<<<<<<oo----oo$-;<-<<<<**.",
"<**<<<<<<<<:oo#o++o&,<-<*******.",
"*..*<<<:<@@@@-&#........X*****..",
"...*---*-@@<111*-*-,111<,.--*...",
"*...o@.@@@1111<<..,1111<,..@....",
"<1321111111<<<<<*.1111<<<<-<11<<",
"<22<11111<<<<<<<*,,11,<<<<<<1<<<",
"<1<111111<<<<<<<**<<<<<<-..*<<2<",
"<<<11111<<<<<<<<***.......*=*<<<",
"<<1111<<<<<<<<<<**.<<<<<<<<<**<<",
"<<11<<<<<<<<<<<***.<<111<2<<<.*<",
"*.11<<<<<<<<<<<****<11<<<<<<<..<",
"<.<<<<<<<<<<<<**.*<<1<<<<<<<<...",
"*.****<;<*<*<**..*<<<<<<<<<<.*.*",
"**.***=-******..............****"
};
