/* XPM */
static char *_f527495b5da4747bc8d3de4b9373105r2sUdbYaDJjykHIH[] = {
/* columns rows colors chars-per-pixel */
"32 32 17 1 ",
"  c None",
". c black",
"X c #606060",
"o c #7878A0",
"O c #0000C0",
"+ c #608080",
"@ c #78A0A0",
"# c #808080",
"$ c #A0A0A0",
"% c gray69",
"& c #9090C0",
"* c #A8A8E0",
"= c #90C0C0",
"- c #C0C0C0",
"; c #C0FFFF",
": c gray88",
"> c white",
/* pixels */
"##                     ######## ",
" ####         >   >>####oooooo  ",
"  oo#########>     ##oooo****   ",
"   oooo&&&##o#    #####***&&    ",
"   oo**###oo&#    #*ooo##&&&    ",
"   **&#o&&::-&#   #o*oooo#&&    ",
"  &&&#o&::$--:#   #o*&&ooo#&    ",
"  &##o&:$--$-$--  #oo*&&&oo#    ",
"  #ooo&:-$$$$$-$- #oo*&&&&oo#   ",
"   o&&:-:$:@@$$$-$ #oo*&&&      ",
"    :&-::$:o===$$--#oo**&       ",
"    $:-:-:-oo#@@#$-#ooo*        ",
"     -:::-> o#===#$:---&        ",
"     $>-:->$:$#@@#$$$::--       ",
"      ->-:>O##$;==##$$$$:--     ",
"      -O>:>O#$#=@+$$#$#$$-:-    ",
"      #:O>:>:##;==##-#$#$$$-    ",
"     $#-::>>:#$=@@+#$$##  $--   ",
"    $$#X--:>-#$;===##$#  >$---  ",
"  $$$#XX>$-:>$#=@@+#$$-....>->  ",
" #$##XX   $-:$$;===#$#$$...>..> ",
" > #X>     $ $##@@+##-$#-$..$$  ",
">  > >      $$$#;==#$-$-##$$$.. ",
"   >      $$-$##++++##-$$##$... ",
"          $--##XX=@@$X#-$-....  ",
"         $-$$#XX..++##$--$...   ",
"         $-$$#X......X#$$-#..   ",
"         --$#XX.......##--#...  ",
"        #$$##X........X$####... ",
"      ###$$#X.....  ...#$#-##.. ",
"     %#.%#.#X%..   ...%#.X%.X%. ",
"     ..........      .........  "
};
