/* XPM */
static char *_6a09aa1d62a46509dbfce1ed184895cVVbq0EPNVdyGaiEf[] = {
/* columns rows colors chars-per-pixel */
"32 32 18 1 ",
"  c #101010",
". c #002000",
"X c #003000",
"o c #003018",
"O c #202020",
"+ c #006000",
"@ c #004020",
"# c gray25",
"$ c #505050",
"% c #606060",
"& c gray44",
"* c #008040",
"= c #00A050",
"- c #00C060",
"; c #808080",
": c #909090",
"> c #A0A0A0",
", c gray69",
/* pixels */
"   OOOO OOO OO  O OOOO  OOOO O O",
",-X==->==-=->>&O,,>,,-,>-,>>>>& ",
">+@.X.X&&;:&@=$ >::;:--X&;&;&&$O",
",=@@.**;&&:+@&#O,::=;X+=+%&&&%# ",
"++X@X@&&+*+X@X$O,;;+&;;X+&=+&X$O",
"+:@X.&&;==X@@.#O,;@=;;X&-+X-=*# ",
">&&;.;&;XX@.X.#O>&@X@%%@*-X@*..O",
"&$$#$##$#$X$..# &$X$X#$XX.X*... ",
" O OO O O OO   OOOO  O O O   O O",
"-=X==-& >----,-=-=>->>&O,,--->->",
":@X@&*$O,:;=+-X;;&&;&%$ >:-=:+&&",
"&X+@-*$O>;::=-&XX;&;&&+ ,:==:+&;",
";@+X@X#O,;:;==X-+;;X&%+O>;&=&&;&",
"&;%X*X# >;&&&&=-+X%.&+X ,+=+XX&&",
"%&%&*.# >&&%;XX+XX..%XXO>X++==X%",
"$#$#.## &$$$$$XXX.X##XX &XX...X$",
"  OO O O O O  O OO OO  OOO  O OO",
",>,==X=>,=+==>&O,->-=->,-=-=->& ",
">@==X=;&@+@X&%$O,:;:;==X*=&;&%$O",
"@@=+@:;;@..X;&# ,;::&XX+X+&;&%# ",
",++@X:&=:@X-X%$ ,&*:&+X+X;++&%$ ",
",+X@.&;&&;X--XXO>++**&&X**X;&&$ ",
">+@X.X;%&%&X.-.O>+XXX&&;XX*X%%#O",
"&$X..X#$#$$$X.. &$XX##$#XX$$### ",
"O O    O OO  O O OO O  O O  OO O",
"=->-->&O,+X=XX--+=*-->& ,,=*-=->",
":=-+;&# ,;;-=&;&==**X&$O,:=*XX&&",
";+X=-%$O,&;+-X&;+=-.-%# ,:&+--&&",
"&X=--X# >;&+X*;&;+=X.X$O>:+X-.&X",
"==**@.XO,;&-X.:&%++X..X >;+XX.X&",
"=@.oX%X >&&**.&%%;%%%.. >&;&+X%&",
"$...### &$$...#$$####.. &$$$...."
};
