/* XPM */
static char *_cadf6e9908a434b96ba71ead1ca30463DA247cq3GOcTjyQ[] = {
/* columns rows colors chars-per-pixel */
"32 32 10 1 ",
"  c #101010",
". c #202020",
"X c gray25",
"o c #505050",
"O c #606060",
"+ c gray44",
"@ c #808080",
"# c #909090",
"$ c #A0A0A0",
"% c gray69",
/* pixels */
"   .... ... ..  . ....  .... . .",
"%%$%%%$$$$$$$$+.%%$%%$%$$%$$$$+ ",
"$##@@++++@#+++o $##@#@@++@+@++o.",
"%+@@#@@@++#+++X.%##+@++@+O+++OX ",
"%@+#+@++@++@@@o.%@@@+@@+++OO+Oo.",
"$#+@+++@@+++++X.%@++@@+++OOOOOX ",
"$++@@@+@++++++X.$+@++OO+OO++OOX.",
"+ooXoXXoXoXoXXX +oooXXoXoXoXXXX ",
" . .. . . ..   ....  . . .   . .",
"%$%$$$+ $%%$%%%$$%$$$$+.%%$%$$$$",
"#@+O++o.%#@#++@@@++@+Oo $#@##@++",
"+++@+Oo.$@##+#++@@+@++X %#@+#++@",
"@++@@+X.%@#@#@O++@@++Oo.$@++++@+",
"+@OO+OX $@+++++@O+OO+OX %+@@@@++",
"O+O+O+X $++O@@@+OO++OOX.$@+++++O",
"oXoXXXX +ooooooXoXoXXXX +ooXoXoo",
"  .. . . . .  . .. ..  ...  . ..",
"%$%%$%$$%%%$$$+.%$$$%$$%%%$$$$+ ",
"$#@#@+@++++O+Oo.%#@#@+@++++@+Oo.",
"%@####@@O+##@+X %@##++@+@@+@+OX ",
"%#+@+#++#@+++Oo %+@#+@@+@@+O+Oo ",
"%@++++@++@+O++X.$@@@@+++++@@++o ",
"$+++O+@O+O+@OOX.$++@+++@++O+OOX.",
"+ooXXXXoXoooXXX +oXoXXoXXoooXXX ",
". .    . ..  . . .. .  . .  .. .",
"%$$%$$+.%$$%%%%%%%$%$$+ %%%%%%$$",
"#@++@+X %@@@++@++@++++o.%#@@+@++",
"@+O+@Oo.%+@+@++@+#@@OOX %#+##@++",
"++OO+OX $@+@@+@+@@@++Oo.$#@@+++@",
"OO@+O+X.%@+@++#+O++@++X $@+@@+@+",
"+++O+OX $+++OO+OO@OOOOX $+@+O+O+",
"oXooXXX +ooXXXXooXXXXXX +oooXXXo"
};
